<svg xmlns="http://www.w3.org/2000/svg" xml:space="preserve" id="Layer_1" x="0" y="0" viewBox="0 0 512 512"><style>.st0{fill-rule:evenodd;clip-rule:evenodd}</style><path d="M320 32c-26.5 0-48 21.5-48 48l3.8 7.3c3.3 2.6 8.7 4.8 15.7 6.4 8.9 1.9 18.1 2.7 27.2 2.3h1.3l.8.1h8.6c5.4-.2 12.4-.8 19.1-2.3 6.9-1.5 12.3-3.8 15.7-6.4L368 80c0-26.5-21.5-48-48-48m0 96h-10.6c-8.4-.3-16.7-1.3-24.9-3.1-9.1-2-19.7-5.6-28.3-12.3-10.3-7.7-16.3-19.8-16.2-32.6 0-44.2 35.8-80 80-80s80 35.8 80 80c0 14.5-6.9 25.4-16.2 32.5-8.6 6.7-19.3 10.3-28.3 12.3-11.6 2.5-23.5 3.6-35.3 3.2z" class="st0"/><path d="M192 32c-26.5 0-48 21.5-48 48l3.8 7.3c3.3 2.6 8.7 4.8 15.7 6.4 8.9 1.9 18.1 2.7 27.2 2.3h1.3l.8.1h2.2c8.6.1 17.2-.7 25.6-2.4 6.9-1.5 12.3-3.8 15.7-6.4L240 80c0-26.5-21.5-48-48-48m0 96h-10.6c-8.4-.3-16.7-1.3-24.9-3.1-9.1-2-19.7-5.6-28.3-12.3-10.3-7.7-16.3-19.8-16.2-32.6 0-44.2 35.8-80 80-80s80 35.8 80 80c0 14.5-6.9 25.4-16.2 32.5-8.6 6.7-19.3 10.3-28.3 12.3-11.6 2.5-23.4 3.6-35.3 3.2zm288 336V224H272v288h160c26.5 0 48-21.5 48-48m-240 48H80c-26.5 0-48-21.5-48-48V224h208z" class="st0"/><path d="M0 128c0-17.7 14.3-32 32-32h448c17.7 0 32 14.3 32 32v32c0 17.7-14.3 32-32 32H32c-17.7 0-32-14.3-32-32z"/></svg>